# xmcd
#
# Track frame offsets:
#	150
#	31486
#	62962
#	111208
#	138154
#	162165
#	216072
#	251882
#
# Disc length: 4094 seconds
#
# Revision: 1
# Processed by: cddbd v1.5.2PL0 Copyright (c) Steve Scherf et al.
# Submitted via: audiograbber 1.83.01
#
DISCID=720ffc08
DTITLE=Grateful Dead - 86-04-21 Berkeley Community Theatre, Berkeley CA
DYEAR=1900
DGENRE=
TTITLE0=Mississippi Half-Step
TTITLE1=El Paso
TTITLE2=Row Jimmy
TTITLE3=My Brother Esau
TTITLE4=Cumberland Blues
TTITLE5=Desolation Row
TTITLE6=Ramble On Rose
TTITLE7=Let It Grow
EXTD=
EXTT0=
EXTT1=
EXTT2=
EXTT3=
EXTT4=
EXTT5=
EXTT6=
EXTT7=
PLAYORDER=
